Violence.Of.Action.2012.DVDRIP.XVID.AC3.5.1-26K
 
http://uk.imdb.com/title/tt2296471/

Plot:
Elijah Kane falls back onto his special forces past, re-emerging from the ashes of his destroyed SIU to once again

work for the government.


Sources - Audio-DVD....Thanks :P
         VIDEO-DVD.....Thanks :P
         Subs- eng for non english parts hc....
Video
ID                                       : 0
Format                                   : MPEG-4 Visual
Format profile                           : Advanced Simple@L5
Format settings, BVOP                    : 2
Format settings, QPel                    : No
Format settings, GMC                     : No warppoints
Format settings, Matrix                  : Default (H.263)
Muxing mode                              : Packed bitstream
Codec ID                                 : XVID
Codec ID/Hint                            : XviD
Duration                                 : 1h 30mn
Bit rate                                 : 1 794 Kbps
Width                                    : 720 pixels
Height                                   : 400 pixels
Display aspect ratio                     : 16:9
Frame rate                               : 29.970 fps
Color space                              : YUV
Chroma subsampling                       : 4:2:0
Bit depth                                : 8 bits
Scan type                                : Progressive
Compression mode                         : Lossy
Bits/(Pixel*Frame)                       : 0.208
Stream size                              : 1.13 GiB (82%)
Writing library                          : XviD 64

Audio
ID                                       : 1
Format                                   : AC-3
Format/Info                              : Audio Coding 3
Mode extension                           : CM (complete main)
Format settings, Endianness              : Big
Codec ID                                 : 2000
Duration                                 : 1h 30mn
Bit rate mode                            : Constant
Bit rate                                 : 384 Kbps
Channel(s)                               : 6 channels
Channel positions                        : Front: L C R, Side: L R, LFE
Sampling rate                            : 48.0 KHz
Bit depth                                : 16 bits
Compression mode                         : Lossy
Stream size                              : 248 MiB (18%)
Alignment                                : Aligned on interleaves
Interleave, duration                     : 64 ms (1.92 video frames)
Interleave, preload duration             : 192 ms
Title                                    : audio

Notes -
enjoy has eng hd subs for foreign parts.



Screens:
 
http://s11.postimage.org/nyux1jeyr/vlcsnap_2012_11_05_17h47m34s135.png 
http://s11.postimage.org/avzai9oqr/vlcsnap_2012_11_05_17h47m42s236.png 
http://s11.postimage.org/6cn1wr6v7/vlcsnap_2012_11_05_17h48m43s31.png 
http://s11.postimage.org/85ujythfn/vlcsnap_2012_11_05_17h48m58s241.png 
http://lookpic.com/remote-upload.php?img=http://i.imgur.com/0Qbf5.png
